<svg xmlns="http://www.w3.org/2000/svg" viewBox="0 0 456 456" width="456" height="456">
	<path d="M446.5 399h-57v57h-57v-57h-57v-57h57v-57h57v57h57zm-304 -114h76v114h-76z" style="fill:#ffffff;fill-rule:nonzero;stroke-width:0.838376"/>
	<path d="M313.5 437h-266v-19h266zm-5.7 -296.4c15.2 -28.5 3.8 -62.7 -24.7 -76 -9.5 -5.7 -17.1 -7.6 -26.6 -7.6h-1.9C243.2 17.1 201.4 -7.6 161.5 3.8 134.9 11.4 114 30.4 106.4 57h-1.9c-32.3 0 -57 26.6 -57 57 0 9.5 1.9 17.1 5.7 26.6 -38 17.1 -55.1 62.7 -36.1 100.7 11.4 26.6 38 43.7 68.4 43.7h190c41.8 0 76 -34.2 76 -76 0 -30.4 -17.1 -57 -43.7 -68.4" style="fill:#ffffff;fill-rule:nonzero;stroke-width:0.838376"/>
</svg>
